<?xml version="1.0" encoding="UTF-8"?>
<svg width="52px" height="54px" viewBox="0 0 52 54" version="1.1" xmlns="http://www.w3.org/2000/svg" xmlns:xlink="http://www.w3.org/1999/xlink">
    <title>Group 6</title>
    <g id="NS&amp;I_final" stroke="none" stroke-width="1" fill="none" fill-rule="evenodd">
        <g id="NS&amp;I-landing-page---18f-templateish" transform="translate(-744.000000, -1584.000000)">
            <g id="Group-6" transform="translate(744.000000, 1584.000000)">
                <g id="Group-3-Copy" fill="#B3EFFF">
                    <ellipse id="Oval-Copy-3" style="mix-blend-mode: multiply;" cx="26" cy="26.9285714" rx="26" ry="26.5"></ellipse>
                </g>
                <g id="icon-/-award-2--c" transform="translate(4.000000, 4.000000)" stroke="#000000" stroke-linecap="round" stroke-linejoin="round" stroke-width="2">
                    <path d="M22.5,27.1875 C29.2309704,27.1875 34.6875,21.9408369 34.6875,15.46875 C34.6875,8.99666309 29.2309704,3.75 22.5,3.75 C15.7690296,3.75 10.3125,8.99666309 10.3125,15.46875 C10.3125,21.9408369 15.7690296,27.1875 22.5,27.1875 Z M16.104375,26.2664474 L14.0625,41.25 L22.5,36.3157895 L30.9375,41.25 L28.895625,26.25 M22.5,9.375 L24.238125,13.0776814 L28.125,13.6750789 L25.3125,16.5555994 L25.97625,20.625 L22.5,18.7026814 L19.02375,20.625 L19.6875,16.5555994 L16.875,13.6750789 L20.761875,13.0776814 L22.5,9.375 L22.5,9.375 Z" id="Combined-Shape"></path>
                </g>
            </g>
        </g>
    </g>
</svg>