<?xml version="1.0" encoding="UTF-8"?>
<svg width="53px" height="54px" viewBox="0 0 53 54" version="1.1" xmlns="http://www.w3.org/2000/svg" xmlns:xlink="http://www.w3.org/1999/xlink">
    <title>Group 4</title>
    <g id="NS&amp;I_final" stroke="none" stroke-width="1" fill="none" fill-rule="evenodd">
        <g id="NS&amp;I-landing-page---18f-templateish" transform="translate(-206.000000, -1584.000000)">
            <g id="Group-4" transform="translate(206.000000, 1584.000000)">
                <g id="Group" fill="#B3EFFF">
                    <circle id="Oval" cx="26.5" cy="26.9285714" r="26.5"></circle>
                </g>
                <g id="icon-/-user-network--c" transform="translate(4.000000, 3.000000)" stroke="#000000" stroke-linecap="round" stroke-linejoin="round" stroke-width="2">
                    <path d="M15.3247046,9.19696837 C17.4253292,7.92052442 19.878922,7.1875 22.5,7.1875 C25.121078,7.1875 27.5746708,7.92052442 29.6752954,9.19696837 M36.1194117,25.1564808 C35.2390039,28.6528767 33.1040917,31.6344387 30.234375,33.5698782 M14.7654686,33.5697991 C11.8958501,31.6343575 9.76098409,28.652829 8.88058834,25.1564808 M28.125,40.25 L28.125,38.8125 C28.125,37.2246813 26.8658009,35.9375 25.3125,35.9375 L19.6875,35.9375 C18.1341991,35.9375 16.875,37.2246813 16.875,38.8125 L16.875,40.25 M22.5,33.0625 C24.0533009,33.0625 25.3125,31.7753187 25.3125,30.1875 C25.3125,28.5996813 24.0533009,27.3125 22.5,27.3125 C20.9466991,27.3125 19.6875,28.5996813 19.6875,30.1875 C19.6875,31.7753187 20.9466991,33.0625 22.5,33.0625 Z M41.484375,23 L41.484375,21.5625 C41.484375,19.9746813 40.2251759,18.6875 38.671875,18.6875 L33.046875,18.6875 C31.4935741,18.6875 30.234375,19.9746813 30.234375,21.5625 L30.234375,23 M35.859375,15.8125 C37.4126759,15.8125 38.671875,14.5253187 38.671875,12.9375 C38.671875,11.3496813 37.4126759,10.0625 35.859375,10.0625 C34.3060741,10.0625 33.046875,11.3496813 33.046875,12.9375 C33.046875,14.5253187 34.3060741,15.8125 35.859375,15.8125 Z M3.515625,23 L3.515625,21.5625 C3.515625,19.9746813 4.77482414,18.6875 6.328125,18.6875 L11.953125,18.6875 C13.5064259,18.6875 14.765625,19.9746813 14.765625,21.5625 L14.765625,23 M9.140625,15.8125 C7.58732414,15.8125 6.328125,14.5253187 6.328125,12.9375 C6.328125,11.3496813 7.58732414,10.0625 9.140625,10.0625 C10.6939259,10.0625 11.953125,11.3496813 11.953125,12.9375 C11.953125,14.5253187 10.6939259,15.8125 9.140625,15.8125 Z" id="Combined-Shape"></path>
                </g>
            </g>
        </g>
    </g>
</svg>