<?xml version="1.0" encoding="UTF-8"?>
<svg width="141px" height="58px" viewBox="0 0 141 58" version="1.1" xmlns="http://www.w3.org/2000/svg" xmlns:xlink="http://www.w3.org/1999/xlink">
    <title>rules-as-code</title>
    <defs>
        <path d="M2.27009456,0.881907349 C1.32943262,1.12721292 0.595390071,1.84202807 0.339834515,2.75467029 L0.339834515,2.75467029 C0.0842789598,3.6699502 0.356146572,4.64325939 1.04669031,5.31323374 L1.04669031,5.31323374 L15.4556738,19.2666365 L1.04669031,33.2200392 C0.53286052,33.7132881 0.241962175,34.3911755 0.241962175,35.0928022 L0.241962175,35.0928022 C0.241962175,35.7970665 0.53286052,36.4696786 1.04669031,36.9655651 L1.04669031,36.9655651 C1.55780142,37.4588139 2.25650118,37.7357718 2.97695035,37.7305705 L2.97695035,37.7305705 C3.7001182,37.7357718 4.39066194,37.4588139 4.9072104,36.9655651 L4.9072104,36.9655651 L21.2192671,21.1393994 C21.7358156,20.6461506 22.0239953,19.9682632 22.0239953,19.2666365 L22.0239953,19.2666365 C22.0239953,18.5623721 21.7358156,17.8897601 21.2192671,17.3938735 L21.2192671,17.3938735 L4.9072104,1.56770786 C4.38794326,1.06390825 3.6892435,0.792225743 2.97423168,0.792225743 L2.97423168,0.792225743 C2.74042553,0.792225743 2.50390071,0.82124038 2.27009456,0.881907349 L2.27009456,0.881907349 Z" id="path-1"></path>
        <path d="M2.27009456,0.881907349 C1.32943262,1.12721292 0.595390071,1.84202807 0.339834515,2.75467029 L0.339834515,2.75467029 C0.0842789598,3.6699502 0.356146572,4.64325939 1.04669031,5.31323374 L1.04669031,5.31323374 L15.4556738,19.2666365 L1.04669031,33.2200392 C0.53286052,33.7132881 0.241962175,34.3911755 0.241962175,35.0928022 L0.241962175,35.0928022 C0.241962175,35.7970665 0.53286052,36.4696786 1.04669031,36.9655651 L1.04669031,36.9655651 C1.55780142,37.4588139 2.25650118,37.7357718 2.97695035,37.7305705 L2.97695035,37.7305705 C3.7001182,37.7357718 4.39066194,37.4588139 4.9072104,36.9655651 L4.9072104,36.9655651 L21.2192671,21.1393994 C21.7358156,20.6461506 22.0239953,19.9682632 22.0239953,19.2666365 L22.0239953,19.2666365 C22.0239953,18.5623721 21.7358156,17.8897601 21.2192671,17.3938735 L21.2192671,17.3938735 L4.9072104,1.56770786 C4.39066194,1.06390825 3.6892435,0.792225743 2.97423168,0.792225743 L2.97423168,0.792225743 C2.74042553,0.792225743 2.50390071,0.823878075 2.27009456,0.881907349 L2.27009456,0.881907349 Z" id="path-3"></path>
        <path d="M17.3750591,1.56770786 L1.06028369,17.3938735 C0.546453901,17.8897601 0.255555556,18.5623721 0.255555556,19.2666365 L0.255555556,19.2666365 C0.255555556,19.9682632 0.546453901,20.6461506 1.06028369,21.1393994 L1.06028369,21.1393994 L17.3750591,36.9655651 C17.8861702,37.4588139 18.5794326,37.7357718 19.3026005,37.7305705 L19.3026005,37.7305705 C20.0257683,37.7357718 20.7190307,37.4588139 21.2328605,36.9655651 L21.2328605,36.9655651 C21.7466903,36.4696786 22.0375887,35.7970665 22.0375887,35.0928022 L22.0375887,35.0928022 C22.0375887,34.3911755 21.7466903,33.7132881 21.2328605,33.2200392 L21.2328605,33.2200392 L6.82387707,19.2666365 L21.2328605,5.31323374 C22.2985816,4.27925758 22.2985816,2.60432171 21.2328605,1.56770786 L21.2328605,1.56770786 C20.7,1.05071978 20.0013002,0.792225743 19.3026005,0.792225743 L19.3026005,0.792225743 C18.6039007,0.792225743 17.9079196,1.05071978 17.3750591,1.56770786 L17.3750591,1.56770786 Z" id="path-5"></path>
        <path d="M17.3750591,1.56770786 L1.06028369,17.3938735 C0.546453901,17.8897601 0.255555556,18.5623721 0.255555556,19.2666365 L0.255555556,19.2666365 C0.255555556,19.9682632 0.546453901,20.6461506 1.06028369,21.1393994 L1.06028369,21.1393994 L17.3750591,36.9655651 C17.8861702,37.4588139 18.5794326,37.7357718 19.3026005,37.7305705 L19.3026005,37.7305705 C20.0257683,37.7357718 20.7190307,37.4588139 21.2328605,36.9655651 L21.2328605,36.9655651 C21.7466903,36.4696786 22.0375887,35.7970665 22.0375887,35.0928022 L22.0375887,35.0928022 C22.0375887,34.3911755 21.7466903,33.7132881 21.2328605,33.2200392 L21.2328605,33.2200392 L6.82387707,19.2666365 L21.2328605,5.31323374 C22.2985816,4.27925758 22.2985816,2.60432171 21.2328605,1.56770786 L21.2328605,1.56770786 C20.7,1.05071978 20.0013002,0.792225743 19.3026005,0.792225743 L19.3026005,0.792225743 C18.6039007,0.792225743 17.9052009,1.05071978 17.3750591,1.56770786 L17.3750591,1.56770786 Z" id="path-7"></path>
    </defs>
    <g id="Website" stroke="none" stroke-width="1" fill="none" fill-rule="evenodd">
        <g id="Aug24---SNAP" transform="translate(-362.000000, -1723.000000)">
            <g id="rules-as-code" transform="translate(362.000000, 1723.000000)">
                <g id="Group-19" transform="translate(31.773050, 0.000000)">
                    <path d="M36.9699349,47.174799 L9.09559715,47.174799 C4.31456186,47.174799 0.438261886,50.9143167 0.438261886,55.5270078 L0.438261886,56.0870066 C0.438261886,56.8991374 1.12012985,57.554681 1.96118878,57.554681 L44.1016901,57.554681 C44.9454022,57.554681 45.6272702,56.8991374 45.6272702,56.0870066 L45.6272702,55.5270078 C45.6272702,50.9143167 41.7509702,47.174799 36.9699349,47.174799 M36.9699349,49.3484434 C40.4509107,49.3484434 43.2924694,52.0422763 43.3720649,55.3836906 L2.69346721,55.3836906 C2.77306269,52.0422763 5.6146214,49.3484434 9.09559715,49.3484434 L36.9699349,49.3484434" id="Fill-1" fill="#1C304A"></path>
                    <path d="M77.5681412,43.6680391 C77.6636558,43.6680391 77.7565172,43.652115 77.8493785,43.6468069 C77.6318176,43.657423 77.4116034,43.654769 77.188736,43.6388448 C77.3160888,43.6494609 77.4434416,43.6680391 77.5681412,43.6680391" id="Fill-3" fill="#1C304A"></path>
                    <path d="M37.0967571,46.0110102 C36.746537,45.9658918 36.3963168,45.8995412 36.0487499,45.7880723 C36.3963168,45.8995412 36.746537,45.9658918 37.0967571,46.0110102" id="Fill-5" fill="#1C304A"></path>
                    <path d="M37.8354032,46.0680716 C37.9415305,46.0680716 38.0450046,46.0494935 38.1484787,46.0441854 C37.9070391,46.0574555 37.6655995,46.0548015 37.4188535,46.0362234 C37.5594721,46.0468395 37.6974376,46.0680716 37.8354032,46.0680716" id="Fill-7" fill="#1C304A"></path>
                    <path d="M18.933864,28.6977598 C18.9099854,28.6977598 18.8887599,28.7083759 18.8675345,28.7083759 C18.9126386,28.7083759 18.9603959,28.7083759 19.0081532,28.7110299 C18.9842745,28.7110299 18.9577427,28.6977598 18.933864,28.6977598" id="Fill-9" fill="#1C304A"></path>
                    <path d="M30.8084487,2.10047339 C31.1586688,2.14559177 31.5088889,2.21194233 31.859109,2.32341128 C31.5088889,2.21194233 31.1586688,2.14559177 30.8084487,2.10047339" id="Fill-11" fill="#1C304A"></path>
                    <path d="M30.0727211,2.0434119 C29.9665938,2.0434119 29.8631197,2.06199006 29.7596455,2.06729811 C30.0010852,2.05402799 30.2425248,2.05668202 30.4892708,2.07526017 C30.3486521,2.06464408 30.2106866,2.0434119 30.0727211,2.0434119" id="Fill-13" fill="#1C304A"></path>
                    <path d="M80.5452775,38.725453 L80.3622079,39.2987219 C79.9668837,40.5195722 78.8445874,41.3370111 77.5684065,41.3370111 C77.2659437,41.3370111 76.9608277,41.2892387 76.6689776,41.1963479 L44.26831,30.7740016 L46.2475843,24.6113614 L78.6482519,35.0310537 C79.3937962,35.2725697 80.0040282,35.7901041 80.3622079,36.485458 C80.7177344,37.1834659 80.784064,37.9796727 80.5452775,38.725453 L80.5452775,38.725453 Z M27.585097,12.6762222 L45.7593987,18.5203798 L44.5999578,22.1245423 L44.5973047,22.1298503 L43.7403266,24.799797 L42.3447525,29.1497398 L41.479815,31.8303026 L40.3203741,35.4424272 L22.1460724,29.5982696 L27.585097,12.6762222 Z M42.0820874,38.4467806 L41.161433,41.3104709 C40.6944729,42.7622212 39.359922,43.7389015 37.8343419,43.7389015 C37.473509,43.7389015 37.1126762,43.680513 36.7624561,43.56639 L20.3021104,38.2716152 C18.4661079,37.6797681 17.4525921,35.7078294 18.0415987,33.8712459 L18.9542935,31.0394039 L32.3634791,35.3336123 L41.8273819,38.3645059 L42.0820874,38.4467806 Z M25.8233836,9.66656071 L26.7466912,6.80287044 C27.2109982,5.35112014 28.5482023,4.37443986 30.0737824,4.37443986 C30.4319621,4.37443986 30.7927949,4.43017433 31.143015,4.5442973 L47.6060139,9.83907218 C49.4393632,10.4309192 50.452879,12.4028579 49.8638724,14.2394415 L48.9830157,17.0818996 L30.6150317,11.2005857 L26.0780892,9.74618139 L25.8233836,9.66656071 Z M79.3646112,32.8122909 L46.9639437,22.3925986 L47.985419,19.2104256 L48.2693096,19.3033164 C48.478911,19.369667 48.6885124,19.3935532 48.8981139,19.4015152 C48.9246457,19.4015152 48.9485243,19.4147853 48.9750562,19.4147853 C48.9962816,19.4147853 49.0175071,19.4041692 49.0387326,19.4041692 C49.2509872,19.3962072 49.4579354,19.3670129 49.654271,19.3059704 C49.683456,19.2953543 49.7099878,19.2820842 49.7391728,19.2714681 C49.9195892,19.2077716 50.0893929,19.1201888 50.2512371,19.0113739 C50.2804221,18.9927958 50.3096071,18.9768716 50.3387921,18.9556394 C50.5059426,18.8335544 50.6518677,18.6849291 50.7818736,18.5203798 C50.8110586,18.4832234 50.8349373,18.4460671 50.8614691,18.4089108 C50.9808623,18.2284373 51.0896428,18.0346936 51.1639319,17.8170638 L52.0819332,14.9533735 C53.0689171,11.8879775 51.3841461,8.60495172 48.31972,7.61765535 L31.8567212,2.32288047 C31.5091542,2.21141153 31.1589341,2.14506096 30.808714,2.09994258 C30.7025867,2.08401845 30.5964594,2.08136442 30.4903321,2.07340236 C30.2435861,2.05747822 29.9994933,2.0548242 29.7580536,2.06544029 C29.6360072,2.07340236 29.5139608,2.08136442 29.3945676,2.09728856 C29.1478216,2.12648281 28.9090352,2.17425521 28.6729019,2.23264371 C28.5747341,2.25652991 28.4739132,2.27510807 28.3757454,2.30164829 C28.049404,2.40250115 27.731022,2.52458618 27.425906,2.68117351 C27.3914146,2.70240569 27.3569233,2.72894591 27.3197787,2.74487005 C27.0571136,2.88818726 26.8024081,3.05273666 26.5609684,3.23321019 C26.4734134,3.29956075 26.3911647,3.3765274 26.3062629,3.44818601 C26.1258465,3.60211931 25.9560428,3.76136066 25.7941986,3.93652615 C25.71195,4.02676291 25.6323545,4.1196537 25.552759,4.21519851 C25.4015276,4.40098008 25.2635621,4.60268579 25.1335561,4.81235357 C25.0778393,4.90524436 25.0115097,4.99548112 24.9584461,5.09633398 C24.7886424,5.40950863 24.6400641,5.7359534 24.5259773,6.08893839 L23.6053229,8.95262866 C23.2179582,10.1602089 23.8812539,11.4580259 25.0911052,11.8455132 L25.3749958,11.9357499 L19.9200521,28.9002617 L19.6388147,28.810025 C19.4292133,28.7410204 19.2169586,28.7171342 19.0100104,28.7118261 C18.9595999,28.7091721 18.9144958,28.7091721 18.8667385,28.7091721 C18.6571371,28.7171342 18.4501888,28.7436744 18.2512001,28.8073709 C18.2220151,28.817987 18.1954833,28.8286031 18.1662983,28.8392192 C17.988535,28.9055698 17.8160782,28.9904985 17.6568872,29.0993134 C17.6277022,29.1178916 17.5932108,29.1364697 17.566679,29.1577019 C17.3995285,29.2771329 17.2536034,29.4257582 17.1262506,29.5929616 C17.0970656,29.6274639 17.073187,29.6646202 17.0466552,29.7044305 C16.9246088,29.8822501 16.8131751,30.0759937 16.7441923,30.2936235 L15.8235379,33.1573138 C14.8392071,36.2253638 16.5239782,39.5057356 19.585751,40.493032 L36.0487499,45.7878069 C36.3963168,45.8992758 36.746537,45.9682804 37.0967571,46.0107448 C37.2055376,46.0266689 37.3116649,46.0293229 37.4177922,46.037285 C37.6645382,46.0558631 37.908631,46.0585172 38.1500706,46.045247 C38.2694638,46.037285 38.3915103,46.0293229 38.5135567,46.0133988 C38.7576495,45.9842045 38.9990891,45.9390861 39.2352224,45.8780436 C39.3333901,45.8568114 39.4342111,45.8382333 39.5297256,45.809039 C39.8560671,45.7081862 40.1771022,45.5834471 40.4795651,45.4295138 C40.5167096,45.4109357 40.551201,45.3870495 40.5856924,45.3658173 C40.8510106,45.2225001 41.1057162,45.0606047 41.3445026,44.8774771 C41.4347108,44.8111266 41.5143063,44.736814 41.5992082,44.6625013 C41.7796246,44.511222 41.9520815,44.3493267 42.1139256,44.1768152 C42.1961743,44.0865784 42.2757698,43.9910336 42.3527121,43.8954888 C42.5039435,43.7097072 42.641909,43.5080015 42.7719149,43.3009878 C42.830285,43.202789 42.8966145,43.1125522 42.947025,43.0143534 C43.1194819,42.7011787 43.2680601,42.3747339 43.3794938,42.0217489 L44.3028014,39.1580587 C44.6901661,37.9504784 44.0242172,36.6553155 42.8143659,36.2651742 L42.5331285,36.1749374 L43.557257,32.9927644 L75.9552714,43.4151108 C76.2710001,43.5159636 76.5867289,43.5770061 76.9024576,43.6168165 C76.9979722,43.6300866 77.0934868,43.6327406 77.1890014,43.6407027 C77.4118687,43.6539728 77.6320829,43.6566268 77.8496439,43.6460107 C77.9610775,43.6407027 78.069858,43.6353946 78.1812917,43.6221245 C78.4015059,43.5929303 78.6164137,43.5504659 78.8313215,43.4973855 C78.9215297,43.4761533 79.0117379,43.4602291 79.0992929,43.4310349 C79.3937962,43.3434521 79.6829931,43.2319832 79.956271,43.093974 C79.9907623,43.0753959 80.0226005,43.0515097 80.0517855,43.0329315 C80.2932252,42.9055384 80.5213989,42.7595672 80.7389599,42.5950178 C80.8212085,42.5339753 80.8928445,42.4649707 80.9697868,42.3986201 C81.1342841,42.260611 81.2881687,42.1146397 81.4340937,41.9580524 C81.5057297,41.8757777 81.5800188,41.793503 81.6490015,41.7059203 C81.7896202,41.5387168 81.9143198,41.3555893 82.0310599,41.1671537 C82.0814703,41.082225 82.1398403,40.9972963 82.1875976,40.9097135 C82.3414822,40.6283871 82.4794477,40.3284826 82.5802687,40.0126539 L82.7633383,39.4420391 C83.6548077,36.6712396 82.1318808,33.7013884 79.3646112,32.8122909 L79.3646112,32.8122909 Z" id="Fill-15" fill="#1C304A"></path>
                    <path d="M88.8571684,52.280682 C88.1514218,52.2859155 87.4748602,52.0072432 86.9734087,51.510941 C86.4719571,51.0119847 86.1880666,50.335209 86.1880666,49.626585 C86.1880666,48.917961 86.4719571,48.2411853 86.9734087,47.742229 L101.035277,33.70245 L86.9734087,19.662671 C86.2995002,18.9885493 86.0368351,18.009215 86.2835811,17.0882692 C86.5303271,16.1699774 87.2493397,15.4507373 88.1673409,15.2039132 C89.0853421,14.9570892 90.0670197,15.2198374 90.7409281,15.8939591 L106.660025,31.8180941 C107.161476,32.3170503 107.445367,32.993826 107.445367,33.70245 C107.445367,34.411074 107.161476,35.0878498 106.660025,35.586806 L90.7409281,51.510941 C90.2394766,52.0072432 89.562915,52.2859155 88.8571684,52.280682" id="Fill-17" fill="#00CFFF"></path>
                </g>
                <g id="Group-22" transform="translate(117.163121, 14.893617)">
                    <mask id="mask-2" fill="white">
                        <use xlink:href="#path-1"></use>
                    </mask>
                    <g id="Clip-21"></g>
                    <polygon id="Fill-20" fill="#00CFFF" mask="url(#mask-2)" points="-752.815012 1675.73864 1514.56087 1675.73864 1514.56087 -761.490871 -752.815012 -761.490871"></polygon>
                </g>
                <g id="Group-25" transform="translate(117.163121, 14.893617)">
                    <mask id="mask-4" fill="white">
                        <use xlink:href="#path-3"></use>
                    </mask>
                    <g id="Clip-24"></g>
                    <polygon id="Fill-23" fill="#00CFFF" mask="url(#mask-4)" points="-13.3514184 50.9189679 35.6173759 50.9189679 35.6173759 -12.3962457 -13.3514184 -12.3962457"></polygon>
                </g>
                <path d="M19.1012063,51.6312057 C18.3732557,51.6363785 17.6807484,51.3609406 17.1654575,50.8703988 L0.807016426,35.1310896 C0.291725532,34.6379246 0,33.9690039 0,33.2686047 C0,32.5682054 0.291725532,31.8992848 0.807016426,31.4061198 L17.1654575,15.6668106 C18.234209,14.6358858 19.9654773,14.6358858 21.0369552,15.6668106 C22.1057067,16.6977353 22.1057067,18.3634789 21.0369552,19.3917804 L6.58427253,33.2686047 L21.0369552,47.145429 C21.5495197,47.638594 21.8439716,48.3075146 21.8439716,49.0079139 C21.8439716,49.7083131 21.5495197,50.3772338 21.0369552,50.8703988 C20.5216643,51.3609406 19.8264306,51.6363785 19.1012063,51.6312057" id="Fill-26" fill="#00CFFF"></path>
                <g id="Group-30" transform="translate(0.000000, 14.893617)">
                    <mask id="mask-6" fill="white">
                        <use xlink:href="#path-5"></use>
                    </mask>
                    <g id="Clip-29"></g>
                    <polygon id="Fill-28" fill="#00CFFF" mask="url(#mask-6)" points="-714.739953 1675.73864 1552.63593 1675.73864 1552.63593 -761.490871 -714.739953 -761.490871"></polygon>
                </g>
                <g id="Group-33" transform="translate(0.000000, 14.893617)">
                    <mask id="mask-8" fill="white">
                        <use xlink:href="#path-7"></use>
                    </mask>
                    <g id="Clip-32"></g>
                    <polygon id="Fill-31" fill="#00CFFF" mask="url(#mask-8)" points="-13.3351064 50.9189679 35.6336879 50.9189679 35.6336879 -12.3962457 -13.3351064 -12.3962457"></polygon>
                </g>
            </g>
        </g>
    </g>
</svg>